<?xml version="1.0" encoding="utf-8"?>
<svg viewBox="217.009 -269.04 709.764 621.086" xmlns="http://www.w3.org/2000/svg" xmlns:xlink="http://www.w3.org/1999/xlink" xmlns:bx="https://boxy-svg.com">
  <defs>
    <linearGradient id="gradient-2-0" gradientUnits="userSpaceOnUse" x1="-17.263" y1="-457.481" x2="-17.263" y2="540.692" gradientTransform="matrix(0.997258, -0.073996, 0.031518, 0.424783, -148.832649, 77.711744)" xlink:href="#gradient-2"/>
    <linearGradient id="gradient-2" bx:pinned="true">
      <stop offset="0" style="stop-color: rgb(254, 68, 0);"/>
      <stop offset="1" style="stop-color: rgb(254, 136, 92);"/>
    </linearGradient>
  </defs>
  <path d="M 339.193 -524.055 C 447.493 -520.355 569.093 -481.155 590.693 -398.955 C 612.293 -316.855 533.793 -191.855 486.993 -93.855 C 440.293 4.145 425.293 75.145 402.493 155.245 C 379.793 235.345 349.293 324.545 287.793 390.245 C 226.293 455.945 133.793 498.045 64.093 458.545 C -5.607 419.045 -52.507 297.845 -136.607 245.245 C -220.807 192.745 -342.207 208.645 -423.707 168.045 C -505.307 127.445 -547.007 30.345 -546.307 -66.455 C -545.607 -163.155 -502.407 -259.555 -437.307 -328.655 C -372.207 -397.755 -285.207 -439.755 -201.807 -457.755 C -118.407 -475.755 -38.507 -469.755 48.793 -482.755 C 136.093 -495.755 230.993 -527.655 339.193 -524.055" style="fill: url(#gradient-2-0);" transform="matrix(0.622223, 0, 0, 0.622223, 556.93927, 57.214439)"/>
</svg>