<?xml version="1.0" encoding="utf-8"?>
<svg viewBox="24.563 58.257 503.449 342.744" width="503.449" height="342.744" xmlns="http://www.w3.org/2000/svg">
  <g transform="matrix(1, 0, 0, 1, 287.190033, 198.003067)">
    <path d="M81.4 -98.7C126.5 -97.8 198.3 -110.6 226 -91.1C253.7 -71.7 237.2 -20 220 24.7C202.8 69.4 184.9 107.1 160.2 142.9C135.5 178.7 103.9 212.6 72.6 200.5C41.2 188.4 10 130.2 -25.3 109.3C-60.7 88.4 -100.3 104.8 -146.2 99.9C-192.2 95 -244.6 68.8 -258.6 31.6C-272.6 -5.6 -248.2 -53.9 -214.7 -86C-181.3 -118 -138.7 -133.9 -101.5 -138.4C-64.2 -142.8 -32.1 -135.9 -6.9 -125.1C18.2 -114.3 36.4 -99.6 81.4 -98.7" fill="#fe4400"/>
  </g>
</svg>