<?xml version="1.0" encoding="utf-8"?>
<svg viewBox="0 0 500 342" width="500" height="342" xmlns="http://www.w3.org/2000/svg">
  <g style="opacity: 0.13;">
    <path d="M 397.088 122.053 C 397.088 123.071 396.264 123.895 395.246 123.895 C 394.229 123.895 393.404 123.071 393.404 122.053 C 393.404 121.036 394.229 120.211 395.246 120.211 C 396.264 120.211 397.088 121.036 397.088 122.053 Z M 411.363 122.032 C 411.363 123.049 410.538 123.874 409.521 123.874 C 408.503 123.874 407.678 123.049 407.678 122.032 C 407.678 121.014 408.503 120.189 409.521 120.189 C 410.538 120.189 411.363 121.014 411.363 122.032 Z M 425.621 121.938 C 425.621 122.956 424.796 123.781 423.778 123.781 C 422.761 123.781 421.936 122.956 421.936 121.938 C 421.936 120.921 422.761 120.096 423.778 120.096 C 424.796 120.096 425.621 120.921 425.621 121.938 Z M 440.065 122.032 C 440.065 123.049 439.24 123.874 438.222 123.874 C 437.205 123.874 436.38 123.049 436.38 122.032 C 436.38 121.014 437.205 120.189 438.222 120.189 C 439.24 120.189 440.065 121.014 440.065 122.032 Z M 454.229 121.938 C 454.229 122.956 453.404 123.781 452.386 123.781 C 451.369 123.781 450.544 122.956 450.544 121.938 C 450.544 120.921 451.369 120.096 452.386 120.096 C 453.404 120.096 454.229 120.921 454.229 121.938 Z M 396.995 111.244 C 396.995 112.261 396.17 113.086 395.153 113.086 C 394.135 113.086 393.31 112.261 393.31 111.244 C 393.31 110.227 394.135 109.402 395.153 109.402 C 396.17 109.402 396.995 110.227 396.995 111.244 Z M 411.27 111.223 C 411.27 112.24 410.445 113.065 409.427 113.065 C 408.41 113.065 407.585 112.24 407.585 111.223 C 407.585 110.205 408.41 109.38 409.427 109.38 C 410.445 109.38 411.27 110.205 411.27 111.223 Z M 425.527 111.129 C 425.527 112.147 424.702 112.972 423.685 112.972 C 422.667 112.972 421.843 112.147 421.843 111.129 C 421.843 110.112 422.667 109.287 423.685 109.287 C 424.702 109.287 425.527 110.112 425.527 111.129 Z M 439.971 111.223 C 439.971 112.24 439.146 113.065 438.129 113.065 C 437.111 113.065 436.286 112.24 436.286 111.223 C 436.286 110.205 437.111 109.38 438.129 109.38 C 439.146 109.38 439.971 110.205 439.971 111.223 Z M 454.135 111.129 C 454.135 112.147 453.31 112.972 452.293 112.972 C 451.275 112.972 450.451 112.147 450.451 111.129 C 450.451 110.112 451.275 109.287 452.293 109.287 C 453.31 109.287 454.135 110.112 454.135 111.129 Z M 397.033 100.119 C 397.033 101.136 396.208 101.961 395.191 101.961 C 394.173 101.961 393.348 101.136 393.348 100.119 C 393.348 99.101 394.173 98.276 395.191 98.276 C 396.208 98.276 397.033 99.101 397.033 100.119 Z M 411.308 100.098 C 411.308 101.115 410.483 101.94 409.465 101.94 C 408.448 101.94 407.623 101.115 407.623 100.098 C 407.623 99.08 408.448 98.255 409.465 98.255 C 410.483 98.255 411.308 99.08 411.308 100.098 Z M 425.565 100.004 C 425.565 101.022 424.74 101.846 423.723 101.846 C 422.705 101.846 421.88 101.022 421.88 100.004 C 421.88 98.987 422.705 98.162 423.723 98.162 C 424.74 98.162 425.565 98.987 425.565 100.004 Z M 440.009 100.098 C 440.009 101.115 439.184 101.94 438.167 101.94 C 437.149 101.94 436.324 101.115 436.324 100.098 C 436.324 99.08 437.149 98.255 438.167 98.255 C 439.184 98.255 440.009 99.08 440.009 100.098 Z M 454.173 100.004 C 454.173 101.022 453.348 101.846 452.331 101.846 C 451.313 101.846 450.488 101.022 450.488 100.004 C 450.488 98.987 451.313 98.162 452.331 98.162 C 453.348 98.162 454.173 98.987 454.173 100.004 Z M 397.042 89.746 C 397.042 90.764 396.217 91.589 395.199 91.589 C 394.182 91.589 393.357 90.764 393.357 89.746 C 393.357 88.729 394.182 87.904 395.199 87.904 C 396.217 87.904 397.042 88.729 397.042 89.746 Z M 411.316 89.725 C 411.316 90.743 410.491 91.567 409.474 91.567 C 408.457 91.567 407.632 90.743 407.632 89.725 C 407.632 88.708 408.457 87.883 409.474 87.883 C 410.491 87.883 411.316 88.708 411.316 89.725 Z M 425.574 89.632 C 425.574 90.649 424.749 91.474 423.732 91.474 C 422.714 91.474 421.889 90.649 421.889 89.632 C 421.889 88.614 422.714 87.789 423.732 87.789 C 424.749 87.789 425.574 88.614 425.574 89.632 Z M 440.018 89.725 C 440.018 90.743 439.193 91.567 438.175 91.567 C 437.158 91.567 436.333 90.743 436.333 89.725 C 436.333 88.708 437.158 87.883 438.175 87.883 C 439.193 87.883 440.018 88.708 440.018 89.725 Z M 454.182 89.632 C 454.182 90.649 453.357 91.474 452.34 91.474 C 451.322 91.474 450.497 90.649 450.497 89.632 C 450.497 88.614 451.322 87.789 452.34 87.789 C 453.357 87.789 454.182 88.614 454.182 89.632 Z M 396.948 78.937 C 396.948 79.955 396.123 80.78 395.106 80.78 C 394.088 80.78 393.264 79.955 393.264 78.937 C 393.264 77.92 394.088 77.095 395.106 77.095 C 396.123 77.095 396.948 77.92 396.948 78.937 Z M 411.223 78.916 C 411.223 79.933 410.398 80.758 409.381 80.758 C 408.363 80.758 407.538 79.933 407.538 78.916 C 407.538 77.899 408.363 77.074 409.381 77.074 C 410.398 77.074 411.223 77.899 411.223 78.916 Z M 425.48 78.823 C 425.48 79.84 424.656 80.665 423.638 80.665 C 422.621 80.665 421.796 79.84 421.796 78.823 C 421.796 77.805 422.621 76.98 423.638 76.98 C 424.656 76.98 425.48 77.805 425.48 78.823 Z M 439.924 78.916 C 439.924 79.933 439.1 80.758 438.082 80.758 C 437.065 80.758 436.24 79.933 436.24 78.916 C 436.24 77.899 437.065 77.074 438.082 77.074 C 439.1 77.074 439.924 77.899 439.924 78.916 Z M 454.089 78.823 C 454.089 79.84 453.264 80.665 452.246 80.665 C 451.229 80.665 450.404 79.84 450.404 78.823 C 450.404 77.805 451.229 76.98 452.246 76.98 C 453.264 76.98 454.089 77.805 454.089 78.823 Z M 396.986 67.812 C 396.986 68.83 396.161 69.654 395.144 69.654 C 394.126 69.654 393.301 68.83 393.301 67.812 C 393.301 66.795 394.126 65.97 395.144 65.97 C 396.161 65.97 396.986 66.795 396.986 67.812 Z M 411.261 67.791 C 411.261 68.808 410.436 69.633 409.418 69.633 C 408.401 69.633 407.576 68.808 407.576 67.791 C 407.576 66.773 408.401 65.948 409.418 65.948 C 410.436 65.948 411.261 66.773 411.261 67.791 Z M 425.518 67.697 C 425.518 68.715 424.694 69.54 423.676 69.54 C 422.659 69.54 421.834 68.715 421.834 67.697 C 421.834 66.68 422.659 65.855 423.676 65.855 C 424.694 65.855 425.518 66.68 425.518 67.697 Z M 439.962 67.791 C 439.962 68.808 439.137 69.633 438.12 69.633 C 437.102 69.633 436.278 68.808 436.278 67.791 C 436.278 66.773 437.102 65.948 438.12 65.948 C 439.137 65.948 439.962 66.773 439.962 67.791 Z M 454.126 67.697 C 454.126 68.715 453.302 69.54 452.284 69.54 C 451.267 69.54 450.442 68.715 450.442 67.697 C 450.442 66.68 451.267 65.855 452.284 65.855 C 453.302 65.855 454.126 66.68 454.126 67.697 Z" style="opacity: 0.28;"/>
    <path style="stroke-width: 3px; opacity: 0.28; fill: none; stroke: rgb(0, 0, 0);" d="M 111.516 100.613 C 112.958 100.45 114.292 100.749 115.517 101.511 C 116.741 102.273 117.858 103.498 118.865 105.186 C 119.465 106.192 120.268 106.995 121.275 107.593 C 122.283 108.192 123.493 108.587 124.907 108.778 C 126.523 108.997 128.011 108.657 129.373 107.759 C 130.733 106.861 131.967 105.405 133.073 103.389 C 133.623 102.386 134.416 101.639 135.45 101.149 C 136.485 100.659 137.761 100.426 139.278 100.45 C 140.607 100.47 141.816 100.862 142.905 101.624 C 143.994 102.386 144.962 103.519 145.811 105.023 C 146.457 106.168 147.366 107.04 148.536 107.638 C 149.706 108.237 151.139 108.563 152.833 108.615 C 154.329 108.662 155.676 108.236 156.874 107.338 C 158.072 106.44 159.12 105.069 160.019 103.226 C 160.6 102.035 161.517 101.221 162.769 100.786 C 164.021 100.35 165.608 100.293 167.531 100.613 C 168.501 100.775 169.354 101.182 170.089 101.835 C 170.824 102.489 171.441 103.388 171.941 104.533 C 172.488 105.787 173.347 106.767 174.517 107.474 C 175.688 108.182 177.17 108.617 178.963 108.778 M 111.843 89.313 C 113.285 89.15 114.619 89.449 115.843 90.211 C 117.068 90.973 118.184 92.198 119.191 93.885 C 119.791 94.892 120.595 95.695 121.602 96.293 C 122.609 96.892 123.82 97.287 125.234 97.478 C 126.85 97.697 128.338 97.357 129.699 96.459 C 131.06 95.561 132.293 94.104 133.399 92.089 C 133.95 91.086 134.742 90.339 135.777 89.849 C 136.812 89.359 138.088 89.126 139.605 89.15 C 140.934 89.17 142.143 89.561 143.232 90.324 C 144.321 91.086 145.289 92.219 146.138 93.722 C 146.784 94.868 147.692 95.739 148.862 96.338 C 150.033 96.937 151.465 97.262 153.16 97.315 C 154.656 97.361 156.003 96.936 157.201 96.038 C 158.399 95.139 159.447 93.769 160.346 91.926 C 160.927 90.734 161.843 89.921 163.096 89.485 C 164.348 89.05 165.935 88.993 167.858 89.313 C 168.828 89.474 169.681 89.882 170.415 90.535 C 171.15 91.189 171.767 92.088 172.267 93.232 C 172.814 94.486 173.674 95.466 174.844 96.174 C 176.014 96.882 177.496 97.317 179.29 97.478 M 111.434 78.137 C 112.877 77.974 114.21 78.273 115.435 79.036 C 116.66 79.798 117.776 81.023 118.783 82.71 C 119.383 83.716 120.187 84.519 121.194 85.118 C 122.201 85.717 123.412 86.112 124.826 86.303 C 126.441 86.522 127.93 86.182 129.291 85.284 C 130.652 84.386 131.885 82.929 132.991 80.914 C 133.542 79.91 134.334 79.164 135.368 78.674 C 136.403 78.184 137.679 77.951 139.197 77.974 C 140.526 77.995 141.735 78.386 142.823 79.148 C 143.912 79.91 144.881 81.043 145.729 82.547 C 146.375 83.692 147.284 84.564 148.454 85.163 C 149.624 85.762 151.057 86.087 152.752 86.14 C 154.248 86.186 155.595 85.761 156.792 84.862 C 157.99 83.964 159.038 82.594 159.937 80.751 C 160.519 79.559 161.435 78.746 162.687 78.31 C 163.94 77.874 165.527 77.817 167.45 78.137 C 168.42 78.299 169.272 78.707 170.007 79.36 C 170.742 80.014 171.359 80.912 171.859 82.057 C 172.406 83.311 173.265 84.291 174.436 84.999 C 175.606 85.706 177.088 86.141 178.881 86.303"/>
    <path d="M 303.885 251.806 C 303.885 254.55 301.661 256.774 298.918 256.774 C 296.174 256.774 293.95 254.55 293.95 251.806 C 293.95 249.063 296.174 246.839 298.918 246.839 C 301.661 246.839 303.885 249.063 303.885 251.806 Z M 303.885 271.177 C 303.885 273.921 301.661 276.145 298.918 276.145 C 296.174 276.145 293.95 273.921 293.95 271.177 C 293.95 268.434 296.174 266.21 298.918 266.21 C 301.661 266.21 303.885 268.434 303.885 271.177 Z M 284.237 271.177 C 284.237 273.921 282.013 276.145 279.269 276.145 C 276.526 276.145 274.302 273.921 274.302 271.177 C 274.302 268.434 276.526 266.21 279.269 266.21 C 282.013 266.21 284.237 268.434 284.237 271.177 Z M 284.306 251.737 C 284.306 254.481 282.082 256.704 279.338 256.704 C 276.595 256.704 274.371 254.481 274.371 251.737 C 274.371 248.994 276.595 246.77 279.338 246.77 C 282.082 246.77 284.306 248.994 284.306 251.737 Z" style="opacity: 0.28;"/>
    <g style="opacity: 0.32;" transform="matrix(0.519117, 0, 0, 0.519117, -734.682434, -1.238677)">
      <title>HERO CIRCLES</title>
      <path d="M 1542.888 478.32 L 1491.158 530.05 M 1490.431 479.069 L 1542.515 531.154" style="stroke-linecap: round; stroke-width: 18px; fill: none; stroke: rgb(0, 0, 0);"/>
    </g>
  </g>
</svg>